<svg width="180" height="180" viewBox="0 0 180 180" fill="none" xmlns="http://www.w3.org/2000/svg">
<g clip-path="url(#clip0_1_199)">
<path d="M44.3136 94.3504C46.0451 94.5176 47.5772 93.2294 47.739 91.4852C49.3162 74.3777 60.9363 59.9986 76.8476 54.7698C78.9292 60.048 84.0335 63.7796 90.0035 63.7796C97.8218 63.7796 104.157 57.3842 104.157 49.4954C104.157 41.6029 97.8218 35.2151 90.0035 35.2151C82.1853 35.2151 76.4373 41.0405 75.8953 48.42C57.1044 54.1466 43.3236 70.8969 41.4754 90.8962C41.3098 92.6442 42.5858 94.1946 44.3136 94.3504Z" fill="black"/>
<path d="M137.608 106.158C138.365 102.7 138.749 99.1391 138.749 95.5291C138.749 79.0067 130.629 63.8828 117.338 54.7856C115.896 53.8015 113.947 54.1777 112.972 55.6292C111.993 57.0808 112.366 59.053 113.807 60.0372C125.39 67.9678 132.463 81.1385 132.463 95.5291C132.463 98.1815 132.222 100.811 131.755 103.376C125.917 102.126 119.698 104.714 116.563 110.212C112.655 117.041 114.974 125.777 121.742 129.725C128.51 133.666 137.164 131.329 141.079 124.496C144.632 118.283 143.029 110.482 137.608 106.165V106.158Z" fill="black"/>
<path d="M108.852 133.925C103.044 136.836 96.6335 138.371 90.001 138.371C79.2542 138.371 69.1511 134.328 61.4269 127.218C65.6617 122.749 66.6667 115.83 63.4446 110.202C59.5373 103.373 50.8796 101.033 44.1116 104.973C37.3436 108.921 35.021 117.654 38.9283 124.486C42.4102 130.581 49.6713 133.097 55.999 130.783C65.018 139.644 77.1086 144.725 90.001 144.725C97.6122 144.725 104.975 142.962 111.653 139.614C113.207 138.831 113.843 136.927 113.068 135.358C112.293 133.785 110.411 133.146 108.852 133.925Z" fill="black"/>
</g>
<defs>
<clipPath id="clip0_1_199">
<rect width="106" height="109.926" fill="white" transform="translate(37 35)"/>
</clipPath>
</defs>
</svg>
