<svg width="180" height="180" viewBox="0 0 180 180" fill="none" xmlns="http://www.w3.org/2000/svg">
<g clip-path="url(#clip0_1_205)">
<path d="M44.3136 94.869C46.0451 95.0362 47.5772 93.748 47.739 92.0038C49.3162 74.8963 60.9363 60.5171 76.8476 55.2884C78.9292 60.5665 84.0335 64.2981 90.0035 64.2981C97.8218 64.2981 104.157 57.9027 104.157 50.014C104.157 42.1214 97.8218 35.7336 90.0035 35.7336C82.1853 35.7336 76.4373 41.559 75.8953 48.9386C57.1044 54.6652 43.3236 71.4155 41.4754 91.4148C41.3098 93.1628 42.5858 94.7132 44.3136 94.869Z" fill="white"/>
<path d="M137.608 106.676C138.365 103.218 138.749 99.6576 138.749 96.0476C138.749 79.5253 130.629 64.4014 117.338 55.3042C115.896 54.32 113.947 54.6962 112.972 56.1478C111.993 57.5994 112.366 59.5716 113.807 60.5558C125.39 68.4863 132.463 81.6571 132.463 96.0476C132.463 98.7 132.222 101.33 131.755 103.895C125.917 102.644 119.698 105.232 116.563 110.731C112.655 117.559 114.974 126.295 121.742 130.244C128.51 134.184 137.164 131.847 141.079 125.015C144.632 118.802 143.029 111.001 137.608 106.684V106.676Z" fill="white"/>
<path d="M108.852 134.444C103.044 137.355 96.6335 138.89 90.001 138.89C79.2542 138.89 69.1511 134.847 61.4269 127.737C65.6617 123.268 66.6667 116.348 63.4446 110.72C59.5373 103.892 50.8796 101.551 44.1116 105.492C37.3436 109.44 35.021 118.172 38.9283 125.005C42.4102 131.1 49.6713 133.615 55.999 131.301C65.018 140.163 77.1086 145.243 90.001 145.243C97.6122 145.243 104.975 143.48 111.653 140.132C113.207 139.35 113.843 137.446 113.068 135.876C112.293 134.303 110.411 133.665 108.852 134.444Z" fill="white"/>
</g>
<defs>
<clipPath id="clip0_1_205">
<rect width="106" height="109.926" fill="white" transform="translate(37 35.5186)"/>
</clipPath>
</defs>
</svg>
